<svg width="588" height="146" viewBox="0 0 588 146" fill="none" xmlns="http://www.w3.org/2000/svg">
<path d="M172.96 95.12H196.32V106H161.6V50H172.96V95.12ZM219.808 64.8C223.488 64.8 229.168 66.24 232.448 70.64V66H243.088V106H232.448V101.28C229.088 105.68 223.488 107.2 219.808 107.2C207.888 107.2 200.048 98.24 199.968 86C200.048 73.76 207.888 64.8 219.808 64.8ZM222.128 97.6C227.488 97.6 233.408 94.08 233.408 86C233.408 77.92 227.488 74.4 222.128 74.4C216.688 74.4 210.608 77.68 210.528 86C210.608 94.32 216.688 97.6 222.128 97.6ZM267.946 107.2C259.146 107.2 252.826 102.32 252.826 91.2V66H263.466V89.76C263.466 95.12 266.266 97.68 271.066 97.68C276.426 97.68 279.546 93.76 279.546 87.6V66H290.186V106H279.546V100.8C277.226 104.64 273.386 107.2 267.946 107.2ZM322.815 64.8C331.615 64.8 337.935 69.92 337.935 81.04V106H327.295V82.24C327.295 76.88 324.495 74.32 319.695 74.32C314.335 74.32 311.215 78.72 311.215 84.4V106H300.575V66H311.215V70.8C313.535 66.96 317.375 64.8 322.815 64.8ZM366.471 97.12C369.831 97.12 374.151 95.92 375.511 90.32H386.391C385.111 100.88 376.791 107.2 366.471 107.2C354.791 107.2 345.671 99.04 345.671 86C345.671 72.96 354.791 64.8 366.471 64.8C376.791 64.8 385.111 71.12 386.391 81.68H375.511C374.151 76.32 369.991 74.88 366.471 74.88C362.311 74.88 356.311 77.2 356.311 86C356.311 94.8 362.311 97.12 366.471 97.12ZM416.487 64.8C425.287 64.8 431.607 69.68 431.607 80.8V106H420.967V82.24C420.967 76.88 418.167 74.32 413.367 74.32C408.007 74.32 404.887 78.24 404.887 84.4V106H394.247V50H404.887V71.2C407.287 67.52 411.047 64.8 416.487 64.8Z" fill="#006BB9"/>
<path d="M441.756 50H463.596C474.156 50 483.036 56.64 483.036 69.12C483.036 81.6 474.156 88.24 463.596 88.24H453.116V106H441.756V50ZM463.276 60.88H453.116V77.36H463.276C467.596 77.36 471.836 74.88 471.836 69.12C471.836 63.36 467.596 60.88 463.276 60.88ZM507.933 64.8C511.613 64.8 517.293 66.24 520.573 70.64V66H531.213V106H520.573V101.28C517.213 105.68 511.613 107.2 507.933 107.2C496.013 107.2 488.173 98.24 488.093 86C488.173 73.76 496.013 64.8 507.933 64.8ZM510.253 97.6C515.613 97.6 521.533 94.08 521.533 86C521.533 77.92 515.613 74.4 510.253 74.4C504.813 74.4 498.733 77.68 498.653 86C498.733 94.32 504.813 97.6 510.253 97.6ZM561.191 97.6C566.551 97.6 572.471 94.08 572.471 86C572.471 77.92 566.551 74.4 561.191 74.4C555.751 74.4 549.671 77.68 549.591 86C549.671 94.32 555.751 97.6 561.191 97.6ZM558.871 64.8C562.551 64.8 568.231 66.24 571.511 70.64V50H582.151V106H571.511V101.28C568.151 105.68 562.551 107.2 558.871 107.2C546.951 107.2 539.111 98.24 539.031 86C539.111 73.76 546.951 64.8 558.871 64.8Z" fill="#FF9D00"/>
<rect y="145.149" width="46.0654" height="92.9999" rx="23.0327" transform="rotate(-90 0 145.149)" fill="#FF9D00"/>
<rect x="46.0654" y="92.9999" width="46.0654" height="92.9999" rx="23.0327" transform="rotate(180 46.0654 92.9999)" fill="#006BB9"/>
</svg>
